<svg width="222" height="53" viewBox="0 0 222 53" fill="none" xmlns="http://www.w3.org/2000/svg">
<g clip-path="url(#clip0_282_8626)">
<g clip-path="url(#clip1_282_8626)">
<path d="M7.65918 10.4407L10.4117 7.68652L18.6828 15.9626C19.3614 16.6416 19.3614 17.7425 18.6828 18.4215L18.3877 18.7168C17.7091 19.3958 16.6089 19.3958 15.9303 18.7168L7.65918 10.4407Z" fill="#61B4E5"/>
<path d="M10.4121 45.0479L7.65995 42.294L17.005 32.9434C17.0896 32.8587 17.2281 32.8587 17.3127 32.9434L19.7571 35.3893C19.8418 35.474 19.8418 35.6125 19.7571 35.6972L10.4121 45.0479Z" fill="#61B4E5"/>
<path d="M45.0072 10.4407L42.2547 7.68652L33.9836 15.9626C33.305 16.6416 33.305 17.7425 33.9836 18.4215L34.2787 18.7168C34.9573 19.3958 36.0575 19.3958 36.7361 18.7168L45.0072 10.4407Z" fill="#61B4E5"/>
<path d="M32.9102 35.39L35.3546 32.9441C35.4393 32.8594 35.5777 32.8594 35.6624 32.9441L45.0074 42.2947L42.2552 45.0485L32.9102 35.6979C32.8256 35.6132 32.8256 35.4747 32.9102 35.39Z" fill="#61B4E5"/>
<path d="M26.4848 22.6062C24.8066 22.6062 23.4453 21.2441 23.4453 19.5649V0H29.5242V19.5649C29.5242 21.2441 28.1629 22.6062 26.4848 22.6062Z" fill="#61B4E5"/>
<path d="M30.3784 26.5022C30.3784 24.8231 31.7397 23.4609 33.4179 23.4609H52.971V29.5435H33.4179C31.7397 29.5435 30.3784 28.1814 30.3784 26.5022Z" fill="#61B4E5"/>
<path d="M26.4193 30.3926C28.0975 30.3926 29.4588 31.7547 29.4588 33.4339V52.9988H23.3799V33.4339C23.3799 31.7547 24.7412 30.3926 26.4193 30.3926Z" fill="#61B4E5"/>
<path d="M22.5926 26.5022C22.5926 28.1814 21.2313 29.5435 19.5532 29.5435H0V23.4609H19.5532C21.2313 23.4609 22.5926 24.8231 22.5926 26.5022Z" fill="#61B4E5"/>
<path d="M82.4826 30.4344C81.6734 31.2114 80.6712 31.5352 78.4055 31.5352H71.4821C69.2504 31.5352 68.2142 31.2114 67.4064 30.4344C66.1117 29.2043 65.1733 27.1332 65.1733 20.2056C65.1733 13.278 66.1117 11.1743 67.4064 9.97683C68.2155 9.19984 69.2504 8.87598 71.4821 8.87598H78.4055C80.6698 8.87598 81.6734 9.19984 82.4826 9.97683C83.6793 11.1103 84.2288 12.8249 84.2927 17.065H79.2473C79.1508 14.2496 78.8584 13.6332 78.6 13.3746C78.3729 13.1487 78.0818 13.0508 77.0469 13.0508H72.842C71.8071 13.0508 71.5147 13.1474 71.289 13.3746C70.9979 13.6332 70.5777 14.4428 70.5777 20.2056C70.5777 25.9684 70.9979 26.744 71.289 27.0352C71.5161 27.2298 71.8071 27.3264 72.842 27.3264H77.0469C78.0818 27.3591 78.3742 27.2298 78.6 27.0352C78.8584 26.7767 79.1494 26.2256 79.2473 23.0863H84.3253C84.1948 27.6503 83.678 29.3009 82.4812 30.4344H82.4826Z" fill="#61B4E5"/>
<path d="M102.607 25.903H94.8106L93.1283 31.5352H87.8545L94.8745 10.268C95.2961 9.03784 95.5218 8.7793 96.7186 8.7793H101.085C102.249 8.7793 102.509 9.0705 102.929 10.268L109.949 31.5352H104.319L102.604 25.903H102.607ZM95.976 21.9541H101.443L98.9189 13.5379H98.4987L95.9747 21.9541H95.976Z" fill="#61B4E5"/>
<path d="M130.693 22.8917C129.916 23.5721 128.687 23.8307 126.843 23.8307H119.659V31.5352H114.387V8.87598H126.843C128.685 8.87598 129.916 9.10322 130.693 9.78224C131.728 10.7212 132.633 12.1772 132.633 16.386C132.633 20.5948 131.696 21.9868 130.693 22.8931V22.8917ZM124.773 19.6872C125.97 19.6872 126.324 19.6232 126.552 19.4286C126.908 19.1048 127.199 18.5224 127.199 16.3207C127.199 14.119 126.875 13.5692 126.552 13.278C126.324 13.0848 125.968 12.9868 124.773 12.9868H119.661V19.6872H124.773Z" fill="#61B4E5"/>
<path d="M154.57 31.5352H137.586V8.87598H154.57V13.0521H142.86V17.9087H151.984V21.8902H142.86V27.3605H154.57V31.5366V31.5352Z" fill="#61B4E5"/>
<path d="M165.379 27.3591H176.153V31.5352H160.107V8.87598H165.379V27.3591Z" fill="#61B4E5"/>
<path d="M186.28 27.3591H197.053V31.5352H181.008V8.87598H186.28V27.3591Z" fill="#61B4E5"/>
<path d="M214.655 25.903H206.858L205.176 31.5352H199.902L206.922 10.268C207.344 9.03784 207.57 8.7793 208.766 8.7793H213.133C214.297 8.7793 214.557 9.0705 214.977 10.268L221.997 31.5352H216.367L214.652 25.903H214.655ZM208.024 21.9541H213.491L210.967 13.5379H210.547L208.023 21.9541H208.024Z" fill="#61B4E5"/>
<path d="M70.661 38.6084C71.1411 38.6084 71.5613 38.637 71.9203 38.6955C72.2793 38.754 72.603 38.8411 72.8927 38.9581C73.2381 39.0983 73.5359 39.2724 73.7875 39.4834C74.0391 39.6929 74.2472 39.9338 74.4103 40.2046C74.5735 40.4753 74.6946 40.772 74.7735 41.0972C74.8523 41.4211 74.8918 41.7653 74.8918 42.1287C74.8918 42.3573 74.8714 42.6226 74.8319 42.9261C74.7925 43.2295 74.7231 43.5493 74.6252 43.8854C74.5273 44.2215 74.3954 44.5631 74.2295 44.91C74.0636 45.257 73.8541 45.5918 73.5998 45.9143C73.3455 46.2368 73.0423 46.5348 72.69 46.8097C72.3378 47.0845 71.9271 47.3159 71.4552 47.5023C71.0867 47.6465 70.6746 47.7608 70.2177 47.8452C69.7607 47.9296 69.2222 47.9717 68.6021 47.9717H65.9312L67.8677 38.6098H70.6583L70.661 38.6084ZM67.933 46.5361H68.9883C69.4262 46.5361 69.8111 46.498 70.1415 46.4205C70.472 46.3429 70.7739 46.2354 71.0432 46.0953C71.3967 45.9129 71.7054 45.6843 71.9665 45.4094C72.2277 45.1346 72.4466 44.8284 72.6234 44.4923C72.8002 44.1562 72.9348 43.7969 73.0259 43.4146C73.1171 43.0322 73.1674 42.6444 73.1769 42.2525C73.1864 41.7395 73.1048 41.319 72.9321 40.9924C72.7594 40.6659 72.4847 40.4236 72.1066 40.2644C71.9244 40.1855 71.7122 40.1284 71.4702 40.093C71.2281 40.0576 70.9316 40.0399 70.5821 40.0399H69.282L67.933 46.5334V46.5361Z" fill="#61B4E5"/>
<path d="M81.9268 42.8768C81.9268 43.2551 81.8343 43.5939 81.6507 43.8946C81.4671 44.1954 81.1951 44.4525 80.8361 44.6648C80.4771 44.8771 80.0337 45.039 79.5074 45.1506C78.9811 45.2622 78.3746 45.318 77.6892 45.318C77.6103 45.318 77.5097 45.3153 77.3887 45.3112V45.3534C77.3887 45.601 77.4254 45.816 77.4974 46.0011C77.5695 46.1848 77.6742 46.3358 77.8116 46.4528C77.9489 46.5699 78.1162 46.6542 78.312 46.7087C78.5079 46.7617 78.7268 46.789 78.9689 46.789C79.332 46.789 79.7141 46.744 80.1153 46.6556C80.5165 46.5671 80.866 46.4474 81.1638 46.2991L80.8633 47.7551C80.5736 47.8721 80.2445 47.966 79.8733 48.0381C79.502 48.1102 79.1076 48.147 78.6874 48.147C78.1883 48.147 77.7545 48.0789 77.3873 47.9442C77.0188 47.8095 76.7141 47.619 76.4748 47.3741C76.2341 47.1291 76.0559 46.8393 75.9403 46.5032C75.8234 46.1671 75.7649 45.797 75.7649 45.3901C75.7649 45.0309 75.8016 44.6743 75.8764 44.3192C75.9512 43.9654 76.06 43.6252 76.2055 43.3013C76.3497 42.9775 76.5292 42.6768 76.744 42.3992C76.9589 42.1216 77.2064 41.8807 77.4893 41.678C77.7708 41.4752 78.0877 41.3146 78.4372 41.199C78.7867 41.0819 79.1661 41.0234 79.5768 41.0234C79.9358 41.0234 80.2595 41.0683 80.5491 41.1568C80.8388 41.2452 81.0836 41.3704 81.2876 41.531C81.4916 41.6916 81.648 41.8862 81.7595 42.1148C81.871 42.3434 81.9268 42.5978 81.9268 42.8781V42.8768ZM80.2622 42.8768C80.2622 42.723 80.201 42.5897 80.08 42.4781C79.9589 42.3665 79.774 42.3107 79.5278 42.3107C79.3415 42.3107 79.1511 42.3475 78.958 42.4223C78.7649 42.4971 78.5827 42.6074 78.4127 42.7543C78.2427 42.9013 78.0904 43.0809 77.9544 43.2932C77.8198 43.5055 77.7123 43.749 77.6321 44.0239C78.1257 44.0239 78.5419 43.9912 78.8764 43.9259C79.2123 43.8606 79.483 43.7749 79.6883 43.6674C79.8937 43.5599 80.0405 43.4374 80.1289 43.3C80.2173 43.1625 80.2622 43.021 80.2622 42.8768Z" fill="#61B4E5"/>
<path d="M85.8992 45.9126C85.8992 45.7725 85.8543 45.6582 85.7659 45.5697C85.6775 45.4813 85.5633 45.4023 85.4232 45.3357C85.2831 45.2676 85.124 45.2064 84.9445 45.1506C84.765 45.0948 84.5841 45.0322 84.4019 44.9615C84.2346 44.8961 84.0714 44.8186 83.9164 44.7301C83.76 44.6417 83.6199 44.5301 83.4962 44.3981C83.3724 44.2648 83.2745 44.1083 83.2024 43.9259C83.1303 43.7436 83.0936 43.5245 83.0936 43.2687C83.0936 42.8863 83.1657 42.5543 83.3099 42.2712C83.454 41.9896 83.6485 41.7555 83.8905 41.5718C84.1326 41.3881 84.4155 41.2493 84.7364 41.1595C85.0574 41.0697 85.396 41.0234 85.7509 41.0234C85.9508 41.0234 86.1535 41.0357 86.3561 41.0615C86.5587 41.0874 86.7573 41.1228 86.9504 41.1663C87.1435 41.2112 87.3285 41.2616 87.5066 41.3201C87.6834 41.3786 87.8452 41.4425 87.9894 41.5119L87.7242 42.806C87.3747 42.6618 87.0306 42.5516 86.6934 42.4767C86.3547 42.4019 86.0365 42.3651 85.7387 42.3651C85.4164 42.3651 85.1689 42.4305 84.9935 42.5611C84.818 42.6917 84.731 42.8618 84.731 43.0714C84.731 43.1979 84.7623 43.3041 84.8248 43.3898C84.8874 43.4755 84.9717 43.5517 85.0764 43.617C85.1811 43.6824 85.3022 43.7409 85.4395 43.7926C85.5769 43.8443 85.7197 43.8973 85.8693 43.9531C86.061 44.0225 86.2541 44.1001 86.4499 44.1845C86.6458 44.2688 86.8226 44.3791 86.9817 44.5165C87.1408 44.6539 87.27 44.8227 87.3693 45.0241C87.4699 45.2241 87.5202 45.4772 87.5202 45.7793C87.5202 46.1671 87.4468 46.5073 87.2999 46.8012C87.153 47.0951 86.945 47.3428 86.6743 47.5428C86.4037 47.7428 86.0828 47.8939 85.7088 47.9946C85.3362 48.0953 84.9214 48.1456 84.4644 48.1456C84.2074 48.1456 83.9653 48.132 83.7369 48.1034C83.5084 48.0749 83.3017 48.0408 83.1181 47.9987C82.9345 47.9565 82.7727 47.9129 82.6353 47.8653C82.498 47.819 82.3892 47.7769 82.3103 47.7388L82.5837 46.4161C82.891 46.5372 83.2024 46.6325 83.5179 46.6991C83.8321 46.7672 84.1503 46.8012 84.4726 46.8012C84.9391 46.8012 85.2926 46.7236 85.5361 46.5671C85.7781 46.4107 85.8992 46.1929 85.8992 45.9126Z" fill="#61B4E5"/>
<path d="M88.4448 47.9701L89.8578 41.1894H91.5088L90.0958 47.9701H88.4448ZM90.1366 39.6368L90.4997 37.8379H92.2336L91.8705 39.6368H90.1366Z" fill="#61B4E5"/>
<path d="M95.9831 47.2221C95.7505 47.5296 95.4799 47.7609 95.1712 47.9147C94.8638 48.0684 94.532 48.146 94.1784 48.146C93.8752 48.146 93.6032 48.0902 93.3598 47.9786C93.1177 47.8671 92.9123 47.7078 92.7437 47.5024C92.5764 47.2969 92.4472 47.0506 92.3588 46.7608C92.2705 46.4709 92.2256 46.1498 92.2256 45.7946C92.2256 45.4163 92.2568 45.0367 92.3194 44.6543C92.382 44.2719 92.4758 43.9045 92.5995 43.5521C92.7233 43.1997 92.877 42.8704 93.0606 42.5615C93.2442 42.2539 93.4577 41.9859 93.7011 41.7573C93.9432 41.5287 94.2138 41.349 94.513 41.2184C94.8108 41.0878 95.1372 41.0225 95.4921 41.0225C95.8144 41.0225 96.1191 41.0905 96.4087 41.2252C96.6984 41.3599 96.95 41.5722 97.1635 41.862H97.1921L97.4368 41.1898H98.8498L97.43 48.0399C97.3131 48.6087 97.1472 49.104 96.9296 49.5272C96.7134 49.949 96.4427 50.2987 96.1177 50.5763C95.794 50.8539 95.4092 51.0607 94.9645 51.1955C94.5198 51.3302 94.0071 51.3982 93.4291 51.3982C93.0334 51.3982 92.6349 51.3669 92.2364 51.3043C91.838 51.2417 91.464 51.1424 91.1145 51.0063L91.4014 49.6415C91.6857 49.7585 91.9903 49.8538 92.314 49.9286C92.6376 50.0034 92.9654 50.0402 93.2972 50.0402C93.6984 50.0402 94.0411 49.9925 94.3253 49.8973C94.6095 49.802 94.8502 49.6578 95.0488 49.4673C95.2473 49.2754 95.4105 49.0373 95.5384 48.7502C95.6662 48.4631 95.7723 48.131 95.8566 47.7527C95.9083 47.5282 95.9586 47.3513 96.0103 47.2207H95.9817L95.9831 47.2221ZM96.8507 42.9044C96.8086 42.8431 96.7542 42.7819 96.6862 42.7193C96.6182 42.6567 96.5393 42.6009 96.4482 42.5519C96.3571 42.503 96.2564 42.4621 96.1476 42.4295C96.0375 42.3968 95.9205 42.3805 95.794 42.3805C95.5697 42.3805 95.3684 42.4336 95.1889 42.5383C95.0094 42.6431 94.8489 42.7833 94.7061 42.9588C94.5633 43.1344 94.4409 43.3344 94.3389 43.5603C94.2369 43.7862 94.1526 44.0216 94.0873 44.2638C94.022 44.506 93.9731 44.7455 93.9405 44.9809C93.9078 45.2163 93.8915 45.434 93.8915 45.6354C93.8915 46.0314 93.9527 46.324 94.0764 46.5104C94.2002 46.6968 94.3811 46.7907 94.6191 46.7907C94.8434 46.7907 95.0678 46.7199 95.2936 46.5771C95.5193 46.4342 95.7233 46.2382 95.9056 45.9851C96.1803 45.6068 96.3883 45.087 96.5284 44.4243L96.8507 42.9057V42.9044Z" fill="#61B4E5"/>
<path d="M100.99 47.9709H99.3394L100.746 41.1902H102.152V42.0434H102.18C102.292 41.9087 102.424 41.7781 102.576 41.6556C102.727 41.5318 102.894 41.4243 103.076 41.3304C103.259 41.2365 103.455 41.163 103.668 41.1059C103.88 41.0501 104.103 41.0215 104.336 41.0215C104.601 41.0215 104.853 41.0596 105.088 41.1371C105.323 41.2147 105.531 41.3277 105.711 41.476C105.89 41.6257 106.032 41.8066 106.134 42.0216C106.236 42.2366 106.287 42.4829 106.287 42.7633C106.287 42.9361 106.271 43.1266 106.238 43.3375C106.206 43.547 106.169 43.758 106.127 43.9675L105.295 47.9695H103.644L104.496 43.841C104.525 43.6967 104.547 43.5675 104.563 43.4532C104.579 43.3388 104.587 43.2422 104.587 43.1633C104.587 42.9252 104.521 42.7415 104.387 42.6108C104.254 42.4802 104.05 42.4149 103.775 42.4149C103.435 42.4149 103.119 42.5088 102.825 42.6952C102.531 42.8816 102.286 43.1334 102.091 43.4504C102.054 43.5117 102.017 43.577 101.982 43.6464C101.946 43.7158 101.912 43.7961 101.88 43.8845C101.847 43.973 101.816 44.075 101.786 44.1893C101.756 44.3036 101.725 44.4383 101.692 44.5921L100.993 47.9722L100.99 47.9709Z" fill="#61B4E5"/>
<path d="M113.459 42.8768C113.459 43.2551 113.367 43.5939 113.183 43.8946C113 44.1954 112.728 44.4525 112.369 44.6648C112.01 44.8771 111.566 45.039 111.04 45.1506C110.514 45.2622 109.907 45.318 109.222 45.318C109.143 45.318 109.042 45.3153 108.921 45.3112V45.3534C108.921 45.601 108.958 45.816 109.03 46.0011C109.102 46.1848 109.207 46.3358 109.344 46.4528C109.482 46.5699 109.649 46.6542 109.845 46.7087C110.041 46.7617 110.26 46.789 110.502 46.789C110.865 46.789 111.247 46.744 111.648 46.6556C112.049 46.5671 112.399 46.4474 112.697 46.2991L112.396 47.7551C112.106 47.8721 111.777 47.966 111.406 48.0381C111.035 48.1102 110.64 48.147 110.22 48.147C109.721 48.147 109.287 48.0789 108.92 47.9442C108.551 47.8095 108.247 47.619 108.007 47.3741C107.767 47.1291 107.589 46.8393 107.473 46.5032C107.356 46.1671 107.298 45.797 107.298 45.3901C107.298 45.0309 107.334 44.6743 107.409 44.3192C107.484 43.9654 107.593 43.6252 107.738 43.3013C107.882 42.9775 108.062 42.6768 108.277 42.3992C108.492 42.1216 108.739 41.8807 109.022 41.678C109.304 41.4752 109.62 41.3146 109.97 41.199C110.319 41.0819 110.699 41.0234 111.11 41.0234C111.469 41.0234 111.792 41.0683 112.082 41.1568C112.372 41.2452 112.616 41.3704 112.82 41.531C113.024 41.6916 113.181 41.8862 113.292 42.1148C113.404 42.3434 113.459 42.5978 113.459 42.8781V42.8768ZM111.795 42.8768C111.795 42.723 111.734 42.5897 111.613 42.4781C111.492 42.3665 111.307 42.3107 111.061 42.3107C110.874 42.3107 110.684 42.3475 110.491 42.4223C110.298 42.4971 110.115 42.6074 109.945 42.7543C109.775 42.9013 109.623 43.0809 109.487 43.2932C109.352 43.5055 109.245 43.749 109.165 44.0239C109.658 44.0239 110.075 43.9912 110.409 43.9259C110.745 43.8606 111.016 43.7749 111.221 43.6674C111.426 43.5599 111.573 43.4374 111.662 43.3C111.75 43.1625 111.795 43.021 111.795 42.8768Z" fill="#61B4E5"/>
<path d="M119.816 46.3403C119.816 46.4478 119.844 46.5321 119.903 46.5961C119.961 46.6587 120.061 46.69 120.201 46.69C120.331 46.69 120.497 46.6764 120.697 46.6478L120.41 47.9773C120.284 48.0058 120.145 48.0276 119.99 48.0439C119.836 48.0603 119.699 48.0684 119.578 48.0684C119.196 48.0684 118.905 47.9786 118.707 47.799C118.509 47.6194 118.385 47.3636 118.333 47.0329H118.305C117.983 47.4289 117.637 47.7146 117.266 47.8861C116.895 48.0589 116.533 48.1446 116.178 48.1446C115.875 48.1446 115.603 48.0888 115.359 47.9773C115.117 47.8657 114.912 47.7065 114.743 47.501C114.576 47.2955 114.447 47.0492 114.358 46.7594C114.27 46.4695 114.225 46.1484 114.225 45.7932C114.225 45.415 114.258 45.0353 114.323 44.6529C114.388 44.2706 114.482 43.9032 114.606 43.5507C114.73 43.1983 114.882 42.869 115.064 42.5601C115.246 42.2512 115.454 41.9845 115.69 41.7559C115.925 41.5273 116.186 41.3477 116.473 41.217C116.76 41.0864 117.071 41.0211 117.406 41.0211C117.741 41.0211 118.047 41.0905 118.323 41.2279C118.597 41.3654 118.835 41.5763 119.037 41.8607H119.065L119.897 37.8369H121.548L119.87 45.9116C119.851 46.0001 119.838 46.0831 119.828 46.1606C119.819 46.2382 119.814 46.2967 119.814 46.3389L119.816 46.3403ZM118.843 42.9329C118.801 42.8717 118.747 42.8091 118.679 42.7438C118.611 42.6785 118.533 42.6186 118.445 42.5655C118.357 42.5125 118.257 42.4676 118.147 42.4322C118.037 42.3968 117.92 42.3791 117.794 42.3791C117.575 42.3791 117.375 42.4322 117.195 42.537C117.016 42.6417 116.857 42.7819 116.717 42.9574C116.576 43.133 116.454 43.333 116.349 43.5589C116.245 43.7848 116.158 44.0202 116.091 44.2624C116.023 44.5046 115.973 44.7441 115.94 44.9795C115.907 45.2149 115.891 45.4326 115.891 45.634C115.891 46.03 115.952 46.3226 116.076 46.509C116.2 46.6954 116.381 46.7893 116.619 46.7893C116.876 46.7893 117.129 46.6981 117.382 46.5158C117.634 46.3335 117.857 46.0844 118.053 45.7674C118.259 45.4218 118.416 44.9809 118.529 44.4447L118.843 42.9329Z" fill="#61B4E5"/>
<path d="M129.67 42.5547H127.907L127.236 45.8219C127.213 45.9239 127.195 46.0137 127.183 46.0913C127.17 46.1689 127.165 46.2342 127.165 46.2913C127.165 46.4641 127.211 46.5839 127.305 46.6519C127.399 46.72 127.561 46.754 127.795 46.754C127.952 46.754 128.156 46.7363 128.402 46.7009C128.65 46.6655 128.872 46.6247 129.067 46.5784L128.794 47.9569C128.57 48.0181 128.326 48.0644 128.064 48.097C127.8 48.1297 127.552 48.146 127.319 48.146C126.996 48.146 126.719 48.112 126.486 48.044C126.254 47.9759 126.061 47.8793 125.91 47.7541C125.759 47.6276 125.646 47.4738 125.574 47.2928C125.502 47.1105 125.465 46.905 125.465 46.6764C125.465 46.5975 125.469 46.5022 125.479 46.3934C125.488 46.2832 125.509 46.1525 125.541 45.9974L126.255 42.5547H124.989L125.276 41.1899H126.535L126.934 39.293H128.585L128.193 41.1899H129.955L129.669 42.5547H129.67Z" fill="#61B4E5"/>
<path d="M134.082 41.0228C134.483 41.0228 134.845 41.0759 135.17 41.1834C135.493 41.2909 135.771 41.4501 136.002 41.6624C136.233 41.8747 136.411 42.1427 136.536 42.4666C136.663 42.7905 136.725 43.1674 136.725 43.596C136.725 44.1934 136.644 44.7663 136.481 45.3133C136.317 45.8617 136.077 46.3448 135.757 46.7652C135.438 47.1857 135.04 47.5204 134.564 47.7695C134.088 48.0185 133.539 48.1437 132.913 48.1437C132.518 48.1437 132.156 48.0906 131.83 47.9831C131.503 47.8756 131.224 47.7164 130.993 47.5041C130.762 47.2918 130.584 47.0251 130.459 46.7026C130.332 46.3801 130.27 46.0032 130.27 45.5691C130.27 44.9718 130.351 44.3989 130.515 43.8519C130.678 43.3035 130.918 42.8204 131.238 42.3999C131.558 41.9795 131.955 41.6461 132.431 41.3957C132.907 41.1467 133.456 41.0215 134.082 41.0215V41.0228ZM133.942 42.3809C133.717 42.3809 133.513 42.4258 133.326 42.5142C133.139 42.6027 132.971 42.7252 132.822 42.8816C132.673 43.0381 132.544 43.2191 132.435 43.4246C132.325 43.6301 132.234 43.8505 132.159 44.0859C132.084 44.3213 132.028 44.5635 131.991 44.8098C131.955 45.0575 131.936 45.2997 131.936 45.5378C131.936 45.9256 132.025 46.2305 132.205 46.455C132.384 46.6795 132.667 46.7911 133.055 46.7911C133.279 46.7911 133.483 46.7462 133.671 46.6577C133.857 46.5693 134.025 46.4468 134.174 46.2903C134.324 46.1338 134.454 45.9529 134.566 45.7474C134.677 45.5419 134.77 45.3215 134.842 45.0861C134.914 44.8506 134.968 44.6084 135.006 44.3581C135.043 44.109 135.062 43.8641 135.062 43.6273C135.062 43.245 134.971 42.9415 134.789 42.717C134.607 42.4925 134.325 42.3809 133.943 42.3809H133.942Z" fill="#61B4E5"/>
<path d="M146.711 42.8768C146.711 43.2551 146.619 43.5939 146.435 43.8946C146.252 44.1954 145.98 44.4525 145.621 44.6648C145.262 44.8771 144.818 45.039 144.292 45.1506C143.766 45.2622 143.159 45.318 142.474 45.318C142.395 45.318 142.294 45.3153 142.173 45.3112V45.3534C142.173 45.601 142.21 45.816 142.282 46.0011C142.354 46.1848 142.459 46.3358 142.596 46.4528C142.734 46.5699 142.901 46.6542 143.097 46.7087C143.293 46.7617 143.512 46.789 143.754 46.789C144.117 46.789 144.499 46.744 144.9 46.6556C145.301 46.5671 145.651 46.4474 145.948 46.2991L145.648 47.7551C145.358 47.8721 145.029 47.966 144.658 48.0381C144.287 48.1102 143.892 48.147 143.472 48.147C142.973 48.147 142.539 48.0789 142.172 47.9442C141.803 47.8095 141.499 47.619 141.259 47.3741C141.019 47.1291 140.841 46.8393 140.725 46.5032C140.608 46.1671 140.55 45.797 140.55 45.3901C140.55 45.0309 140.586 44.6743 140.661 44.3192C140.736 43.9654 140.845 43.6252 140.99 43.3013C141.134 42.9775 141.314 42.6768 141.529 42.3992C141.744 42.1216 141.991 41.8807 142.274 41.678C142.555 41.4752 142.872 41.3146 143.222 41.199C143.571 41.0819 143.951 41.0234 144.361 41.0234C144.72 41.0234 145.044 41.0683 145.334 41.1568C145.623 41.2452 145.868 41.3704 146.072 41.531C146.276 41.6916 146.433 41.8862 146.544 42.1148C146.656 42.3434 146.711 42.5978 146.711 42.8781V42.8768ZM145.047 42.8768C145.047 42.723 144.986 42.5897 144.865 42.4781C144.744 42.3665 144.559 42.3107 144.313 42.3107C144.126 42.3107 143.936 42.3475 143.743 42.4223C143.55 42.4971 143.367 42.6074 143.197 42.7543C143.027 42.9013 142.875 43.0809 142.739 43.2932C142.604 43.5055 142.497 43.749 142.417 44.0239C142.91 44.0239 143.327 43.9912 143.661 43.9259C143.997 43.8606 144.268 43.7749 144.473 43.6674C144.678 43.5599 144.825 43.4374 144.914 43.3C145.002 43.1625 145.047 43.021 145.047 42.8768Z" fill="#61B4E5"/>
<path d="M149.25 41.1895L149.789 43.7722C149.961 44.5886 150.096 45.3261 150.194 45.9834H150.236C150.572 45.2459 150.942 44.5233 151.349 43.8143L152.831 41.1908H154.698L150.663 47.9714H149.146L147.586 41.1908H149.25V41.1895Z" fill="#61B4E5"/>
<path d="M158.37 41.0228C158.771 41.0228 159.133 41.0759 159.458 41.1834C159.782 41.2909 160.059 41.4501 160.29 41.6624C160.521 41.8747 160.7 42.1427 160.825 42.4666C160.951 42.7905 161.014 43.1674 161.014 43.596C161.014 44.1934 160.932 44.7663 160.769 45.3133C160.606 45.8617 160.365 46.3448 160.045 46.7652C159.726 47.1857 159.329 47.5204 158.853 47.7695C158.377 48.0185 157.827 48.1437 157.202 48.1437C156.806 48.1437 156.444 48.0906 156.118 47.9831C155.792 47.8756 155.513 47.7164 155.282 47.5041C155.05 47.2918 154.872 47.0251 154.747 46.7026C154.621 46.3801 154.558 46.0032 154.558 45.5691C154.558 44.9718 154.64 44.3989 154.803 43.8519C154.966 43.3035 155.207 42.8204 155.526 42.3999C155.846 41.9795 156.243 41.6461 156.719 41.3957C157.195 41.1467 157.744 41.0215 158.37 41.0215V41.0228ZM158.23 42.3809C158.006 42.3809 157.802 42.4258 157.614 42.5142C157.428 42.6027 157.259 42.7252 157.111 42.8816C156.961 43.0381 156.832 43.2191 156.723 43.4246C156.613 43.6301 156.522 43.8505 156.447 44.0859C156.372 44.3213 156.317 44.5635 156.28 44.8098C156.243 45.0575 156.224 45.2997 156.224 45.5378C156.224 45.9256 156.314 46.2305 156.493 46.455C156.673 46.6795 156.956 46.7911 157.343 46.7911C157.568 46.7911 157.772 46.7462 157.959 46.6577C158.146 46.5693 158.313 46.4468 158.462 46.2903C158.612 46.1338 158.743 45.9529 158.854 45.7474C158.966 45.5419 159.058 45.3215 159.13 45.0861C159.202 44.8506 159.257 44.6084 159.295 44.3581C159.331 44.109 159.351 43.8641 159.351 43.6273C159.351 43.245 159.259 42.9415 159.077 42.717C158.895 42.4925 158.613 42.3809 158.231 42.3809H158.23Z" fill="#61B4E5"/>
<path d="M163.642 37.8379H165.293L163.622 45.8786C163.585 46.065 163.566 46.2011 163.566 46.2841C163.566 46.4147 163.606 46.5086 163.685 46.5671C163.763 46.6256 163.883 46.6542 164.041 46.6542C164.199 46.6542 164.365 46.6352 164.537 46.5984L164.237 47.9837C164.129 48.0068 163.992 48.0286 163.825 48.0463C163.657 48.0653 163.496 48.0748 163.342 48.0748C162.848 48.0748 162.476 47.9646 162.227 47.7428C161.978 47.521 161.853 47.1958 161.853 46.7672C161.853 46.5426 161.883 46.2895 161.944 46.0038L163.644 37.8379H163.642Z" fill="#61B4E5"/>
<path d="M167.551 41.1895L168.09 43.7722C168.262 44.5886 168.397 45.3261 168.495 45.9834H168.537C168.873 45.2459 169.243 44.5233 169.649 43.8143L171.132 41.1908H172.999L168.964 47.9714H167.446L165.886 41.1908H167.551V41.1895Z" fill="#61B4E5"/>
<path d="M179.021 42.8768C179.021 43.2551 178.928 43.5939 178.745 43.8946C178.561 44.1954 178.289 44.4525 177.93 44.6648C177.571 44.8771 177.128 45.039 176.601 45.1506C176.075 45.2622 175.469 45.318 174.783 45.318C174.704 45.318 174.604 45.3153 174.483 45.3112V45.3534C174.483 45.601 174.519 45.816 174.591 46.0011C174.664 46.1848 174.768 46.3358 174.906 46.4528C175.043 46.5699 175.21 46.6542 175.406 46.7087C175.602 46.7617 175.821 46.789 176.063 46.789C176.426 46.789 176.808 46.744 177.209 46.6556C177.611 46.5671 177.96 46.4474 178.258 46.2991L177.957 47.7551C177.668 47.8721 177.339 47.966 176.967 48.0381C176.596 48.1102 176.202 48.147 175.781 48.147C175.282 48.147 174.848 48.0789 174.481 47.9442C174.113 47.8095 173.808 47.619 173.569 47.3741C173.328 47.1291 173.15 46.8393 173.034 46.5032C172.917 46.1671 172.859 45.797 172.859 45.3901C172.859 45.0309 172.896 44.6743 172.97 44.3192C173.045 43.9654 173.154 43.6252 173.3 43.3013C173.444 42.9775 173.623 42.6768 173.838 42.3992C174.053 42.1216 174.3 41.8807 174.583 41.678C174.865 41.4752 175.182 41.3146 175.531 41.199C175.881 41.0819 176.26 41.0234 176.671 41.0234C177.03 41.0234 177.353 41.0683 177.643 41.1568C177.933 41.2452 178.178 41.3704 178.382 41.531C178.586 41.6916 178.742 41.8862 178.853 42.1148C178.965 42.3434 179.021 42.5978 179.021 42.8781V42.8768ZM177.356 42.8768C177.356 42.723 177.295 42.5897 177.174 42.4781C177.053 42.3665 176.868 42.3107 176.622 42.3107C176.436 42.3107 176.245 42.3475 176.052 42.4223C175.859 42.4971 175.677 42.6074 175.507 42.7543C175.337 42.9013 175.184 43.0809 175.048 43.2932C174.914 43.5055 174.806 43.749 174.726 44.0239C175.22 44.0239 175.636 43.9912 175.97 43.9259C176.306 43.8606 176.577 43.7749 176.782 43.6674C176.988 43.5599 177.135 43.4374 177.223 43.3C177.311 43.1625 177.356 43.021 177.356 42.8768Z" fill="#61B4E5"/>
</g>
</g>
<defs>
<clipPath id="clip0_282_8626">
<rect width="222" height="53" fill="white"/>
</clipPath>
<clipPath id="clip1_282_8626">
<rect width="222" height="53" fill="white"/>
</clipPath>
</defs>
</svg>
